<svg width="2500" height="512" viewBox="0 0 2500 512" fill="none" xmlns="http://www.w3.org/2000/svg">
<path d="M2306.25 0.0917969L2312.5 0.756836L2318.75 1.95605L2325 3.69043L2331.25 5.88574L2337.5 8.50586L2343.75 11.4951L2350 14.7617L2356.25 18.2305L2362.5 21.8281L2368.75 25.4453L2375 29.0059L2381.25 32.4014L2387.5 35.5938L2393.75 38.4531L2400 40.9443L2406.25 43.0107L2412.5 44.5615L2418.75 45.5947L2425 46.0557L2431.25 45.9639L2437.5 45.2988L2443.75 44.0996L2450 42.3652L2456.25 40.1699L2462.5 37.5498L2468.75 34.5605L2475 31.2939L2481.25 27.8252L2487.5 24.2275L2493.75 20.6104L2500 17.0498V512H0V17.0498L6.25 13.6543L12.5 10.4619L18.75 7.60254L25 5.11133L31.25 3.04492L37.5 1.49414L43.75 0.460938L50 0L56.25 0.0917969L62.5 0.756836L68.75 1.95605L75 3.69043L81.25 5.88574L87.5 8.50586L93.75 11.4951L100 14.7617L106.25 18.2305L112.5 21.8281L118.75 25.4453L125 29.0059L131.25 32.4014L137.5 35.5938L143.75 38.4531L150 40.9443L156.25 43.0107L162.5 44.5615L168.75 45.5947L175 46.0557L181.25 45.9639L187.5 45.2988L193.75 44.0996L200 42.3652L206.25 40.1699L212.5 37.5498L218.75 34.5605L225 31.2939L231.25 27.8252L237.5 24.2275L243.75 20.6104L250 17.0498L256.25 13.6543L262.5 10.4619L268.75 7.60254L275 5.11133L281.25 3.04492L287.5 1.49414L293.75 0.460938L300 0L306.25 0.0917969L312.5 0.756836L318.75 1.95605L325 3.69043L331.25 5.88574L337.5 8.50586L343.75 11.4951L350 14.7617L356.25 18.2305L362.5 21.8281L368.75 25.4453L375 29.0059L381.25 32.4014L387.5 35.5938L393.75 38.4531L400 40.9443L406.25 43.0107L412.5 44.5615L418.75 45.5947L425 46.0557L431.25 45.9639L437.5 45.2988L443.75 44.0996L450 42.3652L456.25 40.1699L462.5 37.5498L468.75 34.5605L475 31.2939L481.25 27.8252L487.5 24.2275L493.75 20.6104L500 17.0498L506.25 13.6543L512.5 10.4619L518.75 7.60254L525 5.11133L531.25 3.04492L537.5 1.49414L543.75 0.460938L550 0L556.25 0.0917969L562.5 0.756836L568.75 1.95605L575 3.69043L581.25 5.88574L587.5 8.50586L593.75 11.4951L600 14.7617L606.25 18.2305L612.5 21.8281L618.75 25.4453L625 29.0059L631.25 32.4014L637.5 35.5938L643.75 38.4531L650 40.9443L656.25 43.0107L662.5 44.5615L668.75 45.5947L675 46.0557L681.25 45.9639L687.5 45.2988L693.75 44.0996L700 42.3652L706.25 40.1699L712.5 37.5498L718.75 34.5605L725 31.2939L731.25 27.8252L737.5 24.2275L743.75 20.6104L750 17.0498L756.25 13.6543L762.5 10.4619L768.75 7.60254L775 5.11133L781.25 3.04492L787.5 1.49414L793.75 0.460938L800 0L806.25 0.0917969L812.5 0.756836L818.75 1.95605L825 3.69043L831.25 5.88574L837.5 8.50586L843.75 11.4951L850 14.7617L856.25 18.2305L862.5 21.8281L868.75 25.4453L875 29.0059L881.25 32.4014L887.5 35.5938L893.75 38.4531L900 40.9443L906.25 43.0107L912.5 44.5615L918.75 45.5947L925 46.0557L931.25 45.9639L937.5 45.2988L943.75 44.0996L950 42.3652L956.25 40.1699L962.5 37.5498L968.75 34.5605L975 31.2939L981.25 27.8252L987.5 24.2275L993.75 20.6104L1000 17.0498L1006.25 13.6543L1012.5 10.4619L1018.75 7.60254L1025 5.11133L1031.25 3.04492L1037.5 1.49414L1043.75 0.460938L1050 0L1056.25 0.0917969L1062.5 0.756836L1068.75 1.95605L1075 3.69043L1081.25 5.88574L1087.5 8.50586L1093.75 11.4951L1100 14.7617L1106.25 18.2305L1112.5 21.8281L1118.75 25.4453L1125 29.0059L1131.25 32.4014L1137.5 35.5938L1143.75 38.4531L1150 40.9443L1156.25 43.0107L1162.5 44.5615L1168.75 45.5947L1175 46.0557L1181.25 45.9639L1187.5 45.2988L1193.75 44.0996L1200 42.3652L1206.25 40.1699L1212.5 37.5498L1218.75 34.5605L1225 31.2939L1231.25 27.8252L1237.5 24.2275L1243.75 20.6104L1250 17.0498L1256.25 13.6543L1262.5 10.4619L1268.75 7.60254L1275 5.11133L1281.25 3.04492L1287.5 1.49414L1293.75 0.460938L1300 0L1306.25 0.0917969L1312.5 0.756836L1318.75 1.95605L1325 3.69043L1331.25 5.88574L1337.5 8.50586L1343.75 11.4951L1350 14.7617L1356.25 18.2305L1362.5 21.8281L1368.75 25.4453L1375 29.0059L1381.25 32.4014L1387.5 35.5938L1393.75 38.4531L1400 40.9443L1406.25 43.0107L1412.5 44.5615L1418.75 45.5947L1425 46.0557L1431.25 45.9639L1437.5 45.2988L1443.75 44.0996L1450 42.3652L1456.25 40.1699L1462.5 37.5498L1468.75 34.5605L1475 31.2939L1481.25 27.8252L1487.5 24.2275L1493.75 20.6104L1500 17.0498L1506.25 13.6543L1512.5 10.4619L1518.75 7.60254L1525 5.11133L1531.25 3.04492L1537.5 1.49414L1543.75 0.460938L1550 0L1556.25 0.0917969L1562.5 0.756836L1568.75 1.95605L1575 3.69043L1581.25 5.88574L1587.5 8.50586L1593.75 11.4951L1600 14.7617L1606.25 18.2305L1612.5 21.8281L1618.75 25.4453L1625 29.0059L1631.25 32.4014L1637.5 35.5938L1643.75 38.4531L1650 40.9443L1656.25 43.0107L1662.5 44.5615L1668.75 45.5947L1675 46.0557L1681.25 45.9639L1687.5 45.2988L1693.75 44.0996L1700 42.3652L1706.25 40.1699L1712.5 37.5498L1718.75 34.5605L1725 31.2939L1731.25 27.8252L1737.5 24.2275L1743.75 20.6104L1750 17.0498L1756.25 13.6543L1762.5 10.4619L1768.75 7.60254L1775 5.11133L1781.25 3.04492L1787.5 1.49414L1793.75 0.460938L1800 0L1806.25 0.0917969L1812.5 0.756836L1818.75 1.95605L1825 3.69043L1831.25 5.88574L1837.5 8.50586L1843.75 11.4951L1850 14.7617L1856.25 18.2305L1862.5 21.8281L1868.75 25.4453L1875 29.0059L1881.25 32.4014L1887.5 35.5938L1893.75 38.4531L1900 40.9443L1906.25 43.0107L1912.5 44.5615L1918.75 45.5947L1925 46.0557L1931.25 45.9639L1937.5 45.2988L1943.75 44.0996L1950 42.3652L1956.25 40.1699L1962.5 37.5498L1968.75 34.5605L1975 31.2939L1981.25 27.8252L1987.5 24.2275L1993.75 20.6104L2000 17.0498L2006.25 13.6543L2012.5 10.4619L2018.75 7.60254L2025 5.11133L2031.25 3.04492L2037.5 1.49414L2043.75 0.460938L2050 0L2056.25 0.0917969L2062.5 0.756836L2068.75 1.95605L2075 3.69043L2081.25 5.88574L2087.5 8.50586L2093.75 11.4951L2100 14.7617L2106.25 18.2305L2112.5 21.8281L2118.75 25.4453L2125 29.0059L2131.25 32.4014L2137.5 35.5938L2143.75 38.4531L2150 40.9443L2156.25 43.0107L2162.5 44.5615L2168.75 45.5947L2175 46.0557L2181.25 45.9639L2187.5 45.2988L2193.75 44.0996L2200 42.3652L2206.25 40.1699L2212.5 37.5498L2218.75 34.5605L2225 31.2939L2231.25 27.8252L2237.5 24.2275L2243.75 20.6104L2250 17.0498L2256.25 13.6543L2262.5 10.4619L2268.75 7.60254L2275 5.11133L2281.25 3.04492L2287.5 1.49414L2293.75 0.460938L2300 0L2306.25 0.0917969Z" fill="#A5C577"/>
</svg>
